<?xml version="1.0" encoding="utf-8"?>
<!-- Generator: Adobe Illustrator 23.0.6, SVG Export Plug-In . SVG Version: 6.00 Build 0)  -->
<svg version="1.1" id="Capa_1" xmlns="http://www.w3.org/2000/svg" xmlns:xlink="http://www.w3.org/1999/xlink" x="0px" y="0px"
	 viewBox="0 0 500 500" style="enable-background:new 0 0 500 500;" xml:space="preserve">
<style type="text/css">
	.st0{fill:#D33985;}
	.st1{fill:#FFFFFF;stroke:#313F64;stroke-width:12;stroke-miterlimit:10;}
	.st2{fill:#B52F76;}
	.st3{fill:#E2E1D7;stroke:#E2E1D7;stroke-miterlimit:10;}
	.st4{fill:none;stroke:#313F64;stroke-width:12;stroke-miterlimit:10;}
	.st5{fill:#FFFFFF;}
	.st6{fill:#DE8A91;}
</style>
<g>
	<g id="dulce_grande">
		
			<ellipse transform="matrix(0.9999 -0.0157 0.0157 0.9999 -2.308 3.2591)" class="st0" cx="206.15" cy="148.44" rx="128.33" ry="123.51"/>
		<path class="st1" d="M265.12,257.77L373,451.31c0,0,24.17,4.44,31.04-18.56L285.3,245.58L265.12,257.77z"/>
		<path class="st2" d="M94.55,138.74c0,0-21.96,59.39,43.78,101.75c0,0,64.55,43.58,133.74-2.1c0,0,52.29-46.61,55.2-92.46
			l1.38,10.82l-17.07,64.14l-46.42,36.88l-57.58,16.57l-54.39-9.99l-50.06-38.41c-9.5-7.29-13.4-18.46-17.15-29.83l-8.81-25.22
			c-3.23-9.79-4.5-18.76,0.86-27.56l5.64-9.23L94.55,138.74z"/>
		<path class="st2" d="M249.6,36.28l-10.35,31.5c0,0-59.6-35.22-116.56,21.12l5.89-39.11c1.06-7.04,11.97-9.93,18.88-11.65
			l34.49-12.84l50.67,2.82L249.6,36.28z"/>
		<path class="st2" d="M126.2,159.93c0,0,8.06,52.9,68.62,72.44c0,0,55.7,17.2,81.56-24.17l-6.1-4.73c0,0-57.17,43.08-119.9-37.89
			L126.2,159.93z"/>
		<path class="st2" d="M230.53,126.97c0,0-5.59,27.8-27.29,26.94l8.6,10.71l22.64-16.02l5.82-13.35L230.53,126.97z"/>
		<path class="st2" d="M186.59,91.5c0,0,32.61,4.31,41.3,21.04l-16-21.44l-19.34-3.31L186.59,91.5z"/>
		<path class="st3" d="M169.45,35.74c79.37-10.88,117.93,65.64,117.93,65.64c22.42,46.65-0.99,90.4-0.99,90.4
			c-29.31,52.28-78.9,41-78.9,41c-53.24-13.63-76.85-59.05-76.85-59.05c-17.51-40.7,9.69-73.67,9.69-73.67
			c29.52-39.03,65.89-25.14,65.89-25.14c32.69,9.13,42.77,37.9,42.77,37.9c10.28,40.81-18.41,55.73-18.41,55.73
			c-32.35,15.39-48.05,3.85-55.49-8.27c-6.38-10.4-6.76-23.56-0.73-34.17c5.88-10.34,14.13-12.03,20.67-11.27
			c7.28,0.84,13.64,5.68,16.26,12.51c6.07,15.85-16.02,18.84-16.02,18.84c16.35,17.42,25.86,9.77,30.39,2.74
			c2.19-3.41,3.48-7.33,4.04-11.35c3.53-25.33-7.86-37.34-20.48-42.97c-17.59-7.86-38.32-3.55-51.82,10.17
			c-13.42,13.65-14.82,30.54-12.3,45.01c3.08,17.61,12.45,33.5,25.88,45.31c37.68,33.2,66.47,29,83.51,20.26
			c9.88-5.06,17.83-13.17,23.28-22.85c42.55-75.75-45.85-130.66-45.85-130.66C132.39,16.43,85.35,167.81,85.35,167.81l-4.47-16.19
			l6.87-59.1l23.06-29.34l31.04-18.56L169.45,35.74z"/>
		
			<ellipse transform="matrix(0.9999 -0.0157 0.0157 0.9999 -2.308 3.2591)" class="st4" cx="206.15" cy="148.44" rx="128.33" ry="123.51"/>
		<g>
			<path class="st5" d="M94.35,126.69c2.03-6.75,4.89-13.25,8.01-19.59c3.19-6.32,6.75-12.46,10.79-18.33
				c8.02-11.72,17.84-22.46,29.65-30.81c5.92-4.12,12.28-7.67,19.09-10.23c3.4-1.27,6.87-2.37,10.39-3.16
				c3.54-0.8,7.12-1.33,10.72-1.61c3.6-0.26,7.21-0.3,10.79-0.07c3.58,0.27,7.14,0.75,10.64,1.43c6.99,1.48,13.74,3.76,20.08,6.81
				c-6.78-1.87-13.62-3.38-20.52-4.04c-3.44-0.35-6.88-0.51-10.31-0.46c-3.43,0.09-6.84,0.28-10.22,0.76
				c-3.37,0.5-6.7,1.2-9.98,2.07c-3.27,0.9-6.48,2.01-9.62,3.31c-3.13,1.28-6.21,2.76-9.16,4.44c-2.98,1.64-5.86,3.47-8.64,5.43
				c-5.58,3.93-10.78,8.39-15.66,13.24c-4.87,4.85-9.4,10.07-13.68,15.52c-4.23,5.47-8.24,11.17-11.95,17.08
				C101.03,114.35,97.56,120.42,94.35,126.69z"/>
		</g>
		<g>
			<path class="st5" d="M240.61,116.56c-3.37-4.56-6.99-8.88-10.91-12.85c-1.94-2-3.95-3.92-6.06-5.71
				c-2.1-1.78-4.24-3.52-6.49-5.06c-4.51-3.06-9.31-5.62-14.38-7.17c-5.05-1.55-10.35-2.09-15.53-1.42
				c-2.59,0.31-5.16,0.92-7.67,1.75c-1.27,0.4-2.49,0.91-3.73,1.39c-1.21,0.56-2.43,1.1-3.61,1.75c-4.78,2.46-9.18,5.74-13.44,9.24
				c-8.38,7.2-15.73,15.75-22.92,24.53c5.22-10.08,11.7-19.62,19.9-27.8c2.08-2.02,4.2-4,6.54-5.78c1.13-0.93,2.35-1.76,3.54-2.61
				c1.24-0.79,2.46-1.62,3.76-2.33c5.12-2.97,10.9-5.05,16.91-5.81c3.02-0.36,6.07-0.39,9.09-0.05c3.01,0.35,5.98,1.02,8.82,2.01
				c5.68,1.96,10.85,5.04,15.37,8.75c4.55,3.67,8.51,7.95,12,12.5C235.25,106.49,238.32,111.35,240.61,116.56z"/>
		</g>
		<g>
			<path class="st5" d="M282.71,111.08c2,2.78,3.56,5.85,4.98,8.97c1.39,3.14,2.55,6.38,3.48,9.71c1.91,6.63,2.87,13.56,2.93,20.48
				c0.05,6.93-0.89,13.88-2.78,20.53c-1.93,6.63-4.78,12.98-8.59,18.65c2.3-6.43,4.2-12.86,5.49-19.38
				c0.55-3.28,1.09-6.54,1.38-9.84c0.1-0.83,0.13-1.65,0.2-2.47c0.06-0.83,0.13-1.65,0.14-2.47l0.09-2.48l0-2.48
				c-0.04-6.61-0.71-13.23-1.94-19.78c-0.64-3.27-1.36-6.54-2.28-9.77C284.95,117.48,283.9,114.28,282.71,111.08z"/>
		</g>
		<g>
			<path class="st6" d="M117.67,114.88c-1.35,9.95-2.39,19.49-2.85,28.99c-0.44,9.47-0.37,18.82,0.76,27.98
				c0.15,1.15,0.25,2.3,0.45,3.42c0.19,1.14,0.33,2.28,0.53,3.41l0.65,3.38c0.2,1.14,0.52,2.23,0.76,3.36
				c1.06,4.47,2.35,8.9,4,13.24c0.74,2.21,1.76,4.3,2.63,6.5c0.51,1.06,1.02,2.11,1.52,3.18c0.26,0.53,0.47,1.09,0.77,1.61
				l0.84,1.57c2.11,4.31,4.78,8.35,7.33,12.73c-1.08-0.64-2.12-1.35-3.18-2.05l-1.57-1.08c-0.52-0.36-0.99-0.79-1.48-1.17
				c-0.98-0.79-1.94-1.62-2.91-2.46c-0.95-0.85-1.8-1.78-2.73-2.68c-1.85-1.79-3.39-3.83-5.03-5.83c-0.77-1.03-1.48-2.1-2.21-3.17
				c-0.36-0.53-0.74-1.06-1.09-1.61c-0.33-0.55-0.65-1.11-0.97-1.67c-2.69-4.43-4.74-9.26-6.36-14.18
				c-0.38-1.24-0.81-2.47-1.12-3.73l-0.93-3.78c-0.5-2.54-0.98-5.1-1.26-7.67c-1.23-10.28-0.54-20.67,1.71-30.56
				c1.13-4.95,2.63-9.79,4.54-14.47c0.98-2.33,2.01-4.62,3.21-6.85C114.88,119.09,116.15,116.91,117.67,114.88z"/>
		</g>
		<g>
			<path class="st6" d="M164.24,164.76c-1.65-2.62-3-5.43-4.2-8.29c-1.23-2.87-2.18-5.85-3.01-8.87
				c-1.55-6.08-2.34-12.51-1.51-19.01c0.42-3.24,1.22-6.48,2.52-9.57c1.28-3.09,3.13-5.97,5.3-8.53l0.83-0.95
				c0.27-0.33,0.55-0.63,0.87-0.91l1.84-1.72c0.63-0.55,1.31-1.04,1.96-1.56l0.99-0.77l1.04-0.67c0.7-0.45,1.39-0.91,2.1-1.33
				l2.19-1.15l1.1-0.57l1.15-0.5c0.77-0.35,1.54-0.65,2.34-0.92c3.17-1.11,6.49-1.8,9.84-2.02c3.35-0.19,6.75,0.08,10.03,0.86
				c3.27,0.79,6.45,2.05,9.31,3.81c2.86,1.74,5.5,3.9,7.63,6.6c2.13,2.66,3.68,5.84,4.39,9.16c0.71,3.32,0.66,6.68,0.11,9.87
				c-1.31,6.35-4.15,12.02-7.74,17.04c2.32-5.7,4.23-11.57,4.55-17.41c0.14-2.91-0.17-5.77-1.06-8.38
				c-0.88-2.61-2.31-4.96-4.17-6.94c-1.84-1.99-4.16-3.63-6.6-4.94c-2.46-1.28-5.07-2.23-7.79-2.75c-5.42-1.1-11.15-0.61-16.36,1.27
				c-0.66,0.24-1.31,0.46-1.94,0.75l-0.96,0.4l-0.94,0.49l-1.9,0.97c-0.6,0.35-1.2,0.75-1.79,1.11l-0.91,0.55l-0.84,0.63
				c-0.56,0.42-1.13,0.82-1.67,1.26l-1.55,1.38c-0.53,0.45-0.96,1-1.45,1.48c-1.87,2.04-3.46,4.31-4.71,6.82
				c-1.21,2.51-2.11,5.21-2.69,8.02c-1.18,5.62-1.19,11.63-0.41,17.58c0.34,2.99,0.91,5.96,1.59,8.93
				C162.44,158.89,163.25,161.84,164.24,164.76z"/>
		</g>
		<g>
			<path class="st6" d="M190.31,59.51c2.29,0.06,4.58,0.35,6.86,0.64c2.28,0.33,4.54,0.77,6.8,1.23c4.51,0.98,8.96,2.33,13.33,3.92
				c8.74,3.21,17.08,7.8,24.55,13.68c7.45,5.9,13.88,13.26,18.69,21.62c1.15,2.11,2.33,4.22,3.27,6.45l0.74,1.65
				c0.25,0.55,0.49,1.1,0.68,1.67l1.26,3.39c0.45,1.11,0.73,2.29,1.08,3.44c0.32,1.15,0.68,2.31,0.97,3.47l0.75,3.52
				c0.25,1.17,0.52,2.34,0.66,3.52l0.49,3.53c0.07,0.61,0.17,1.13,0.23,1.83c0.06,0.65,0.1,1.25,0.14,1.86
				c0.13,2.44,0.14,4.84,0.03,7.25c-0.24,4.8-0.84,9.59-1.98,14.3c-1.14,4.69-2.73,9.35-5,13.7c-2.23,4.37-5.11,8.45-8.59,11.95
				c-3.47,3.51-7.53,6.4-11.88,8.57c-4.33,2.24-9.01,3.5-13.64,4.38c-9.35,1.53-18.73,1.08-27.69-0.82
				c9.15-0.07,18.24-0.88,26.66-3.47c1.07-0.27,2.09-0.68,3.1-1.06c1.01-0.4,2.06-0.7,3.03-1.21l2.92-1.37l2.77-1.62
				c3.61-2.27,6.84-5.02,9.55-8.2c2.72-3.17,4.92-6.77,6.65-10.6c1.71-3.84,2.97-7.92,3.81-12.11c0.44-2.09,0.74-4.21,1-6.34
				c0.21-2.14,0.39-4.28,0.42-6.43c0.06-2.15,0.05-4.31-0.08-6.4c-0.02-0.53-0.08-1.05-0.13-1.54c-0.03-0.43-0.14-1.04-0.22-1.56
				l-0.47-3.23c-0.12-1.1-0.35-2.14-0.57-3.19l-0.65-3.17c-0.26-1.05-0.57-2.08-0.85-3.12c-0.3-1.03-0.55-2.08-0.92-3.09l-1.04-3.05
				c-0.16-0.51-0.37-1.01-0.58-1.5l-0.62-1.49c-0.77-2.01-1.79-3.89-2.73-5.83c-0.48-0.96-1.06-1.87-1.58-2.81l-0.8-1.4
				c-0.27-0.47-0.59-0.9-0.89-1.35l-1.8-2.68l-1.95-2.58c-0.63-0.89-1.36-1.67-2.05-2.5c-0.7-0.82-1.39-1.66-2.15-2.44
				c-0.74-0.78-1.48-1.59-2.25-2.36l-2.37-2.25c-6.43-5.91-13.81-10.93-21.76-15.02C207.61,65.17,199.14,61.88,190.31,59.51z"/>
		</g>
		<g>
			<path class="st6" d="M266.26,60.72c5.73,2.88,10.79,6.95,15.45,11.39c4.6,4.51,8.79,9.5,12.29,14.96
				c3.57,5.42,6.46,11.28,8.85,17.33c2.32,6.08,3.98,12.39,5.18,18.76c1.21,6.39,1.66,12.87,1.76,19.34l-0.06,4.84
				c0.01,0.8-0.05,1.61-0.1,2.41l-0.16,2.41l-0.16,2.41c-0.05,0.81-0.1,1.61-0.22,2.41l-0.61,4.78
				c-1.72,12.75-5.15,25.19-9.94,37.01c2.85-12.42,5.17-24.88,6.14-37.42c0.99-12.53,0.73-25.1-1.48-37.35
				c-2.11-12.25-6.27-24.14-12.47-34.96c-0.76-1.35-1.6-2.67-2.41-4c-0.88-1.29-1.72-2.61-2.61-3.89c-0.92-1.26-1.8-2.57-2.8-3.77
				l-1.46-1.84l-1.52-1.79C275.89,68.97,271.37,64.51,266.26,60.72z"/>
		</g>
	</g>
</g>
</svg>
