<?xml version="1.0" encoding="utf-8"?>
<!-- Generator: Adobe Illustrator 23.0.6, SVG Export Plug-In . SVG Version: 6.00 Build 0)  -->
<svg version="1.1" id="Capa_1" xmlns="http://www.w3.org/2000/svg" xmlns:xlink="http://www.w3.org/1999/xlink" x="0px" y="0px"
	 viewBox="0 0 500 500" style="enable-background:new 0 0 500 500;" xml:space="preserve">
<style type="text/css">
	.st0{fill:#D33985;}
	.st1{fill:#FFFFFF;stroke:#313F64;stroke-width:12;stroke-miterlimit:10;}
	.st2{fill:#B52F76;}
	.st3{fill:#E2E1D7;stroke:#E2E1D7;stroke-miterlimit:10;}
	.st4{fill:none;stroke:#313F64;stroke-width:12;stroke-miterlimit:10;}
	.st5{fill:#FFFFFF;}
	.st6{fill:#DE8A91;}
</style>
<g>
	<g id="dulce_grande">
		
			<ellipse transform="matrix(0.479 -0.8778 0.8778 0.479 8.5395 290.7706)" class="st0" cx="249.22" cy="138.19" rx="118.27" ry="122.9"/>
		<path class="st1" d="M246.76,257.12l-1.42,212.18c0,0,18.05,15.1,34.63-0.82l-10.65-211.99L246.76,257.12z"/>
		<path class="st2" d="M160.78,77.44c0,0-46.33,39.13-11.53,105.45c0,0,33.23,66.77,112.44,61.35c0,0,65.57-14.17,89.62-51.01
			l-3.96,9.67l-44.49,45.39l-56.09,8.83l-55.8-13.36l-40.61-33.99l-23.6-55.63c-4.48-10.55-2.46-21.71-0.22-32.95l4.56-25.17
			c1.93-9.68,5.1-17.75,13.73-22.56l9.06-5.04L160.78,77.44z"/>
		<path class="st2" d="M338.33,65.22l-23.49,21.36c0,0-33.05-57.47-107.1-37.4l23.36-29.81c4.21-5.36,14.66-2.63,21.23-0.8
			l34.79,5.57l40.89,26.25L338.33,65.22z"/>
		<path class="st2" d="M177.16,110.04c0,0-18.24,47.89,23.01,92.74c0,0,38.31,40.62,79.38,18.34l-2.85-6.81
			c0,0-67.96,8.92-82.04-88.14L177.16,110.04z"/>
		<path class="st2" d="M279.66,131.79c0,0-17.78,20.53-35.46,9.58l2.12,12.99l26.43-2.66l11.15-8.38L279.66,131.79z"/>
		<path class="st2" d="M259.78,81.51c0,0,25.14,18.98,24.49,37.02l-3.22-25.41L266.5,81.23L259.78,81.51z"/>
		<path class="st3" d="M271.8,26.95c71.28,28.38,67.3,110.34,67.3,110.34c-3.33,49.45-43.48,74.86-43.48,74.86
			c-49.09,29.74-85.09-3.06-85.09-3.06c-37.93-36.48-36.18-85.47-36.18-85.47c4.61-42.18,42.83-56.82,42.83-56.82
			c43.01-18.6,66.77,10.14,66.77,10.14c22.93,23.03,17.76,51.76,17.76,51.76c-10.69,38.86-41.63,37.75-41.63,37.75
			c-34.22-2.44-41.86-19.46-42.34-33.07c-0.42-11.67,5.49-22.82,15.52-28.82c9.78-5.84,17.44-3.36,22.54,0.37
			c5.67,4.13,8.69,11.16,7.65,18.1c-2.42,16.07-22.24,8.14-22.24,8.14c5.4,22.23,16.94,20.34,24.04,16.62
			c3.44-1.81,6.35-4.47,8.72-7.55c14.9-19.44,11.07-34.82,3.21-45.48c-10.94-14.84-30.26-21.04-47.98-15.97
			c-17.62,5.04-26.76,18.45-31.49,31.71c-5.74,16.13-5.43,33.79,0.18,49.97c15.73,45.45,41.71,55.52,60.03,56.29
			c10.62,0.44,21.08-2.57,30.18-8.06c71.2-43.05,23.45-130.52,23.45-130.52C250.03-6.63,139.41,97.33,139.41,97.33l3.92-15.61
			l33.62-46.01L210,22.15l34.63-0.82L271.8,26.95z"/>
		
			<ellipse transform="matrix(0.479 -0.8778 0.8778 0.479 8.5395 290.7706)" class="st4" cx="249.22" cy="138.19" rx="118.27" ry="122.9"/>
		<g>
			<path class="st5" d="M166.31,67.31c4.88-4.66,10.32-8.73,15.91-12.55c5.63-3.76,11.51-7.2,17.64-10.18
				c12.22-5.99,25.47-10.29,39.24-11.68c6.87-0.63,13.86-0.59,20.73,0.48c3.43,0.55,6.83,1.27,10.15,2.28
				c3.32,1,6.56,2.25,9.69,3.72c3.12,1.48,6.15,3.15,9.03,5.03c2.86,1.92,5.6,3.99,8.19,6.21c5.12,4.53,9.68,9.61,13.52,15.15
				c-4.78-4.76-9.76-9.24-15.19-13.05c-2.7-1.91-5.49-3.67-8.37-5.25c-2.9-1.54-5.84-2.99-8.88-4.19c-3.05-1.18-6.15-2.16-9.29-2.98
				c-3.15-0.79-6.35-1.38-9.58-1.78c-3.22-0.41-6.47-0.62-9.73-0.62c-3.26-0.03-6.52,0.13-9.76,0.45c-6.5,0.64-12.95,1.91-19.3,3.65
				c-6.35,1.74-12.58,3.96-18.73,6.48c-6.11,2.56-12.14,5.42-18.01,8.59C177.7,60.18,171.94,63.6,166.31,67.31z"/>
		</g>
		<g>
			<path class="st5" d="M292.97,127.88c-0.65-5.39-1.64-10.69-3.03-15.86c-0.67-2.58-1.44-5.13-2.35-7.62
				c-0.91-2.48-1.87-4.93-3.02-7.29c-2.31-4.68-5.11-9.08-8.61-12.75c-3.48-3.68-7.64-6.62-12.28-8.51
				c-2.31-0.97-4.73-1.68-7.22-2.16c-1.24-0.27-2.5-0.42-3.77-0.6c-1.27-0.11-2.55-0.22-3.83-0.25c-5.14-0.21-10.36,0.45-15.56,1.36
				c-10.38,2.05-20.54,5.7-30.67,9.63c9.1-5.94,19.01-10.82,29.71-13.77c2.68-0.7,5.39-1.35,8.17-1.73c1.38-0.24,2.78-0.36,4.19-0.5
				c1.41-0.07,2.82-0.19,4.24-0.17c5.67-0.07,11.46,0.94,16.84,3.14c2.68,1.12,5.24,2.54,7.6,4.25c2.35,1.72,4.51,3.67,6.4,5.83
				c3.81,4.32,6.66,9.33,8.68,14.54c2.07,5.21,3.34,10.64,4.1,16.08C293.25,116.96,293.52,122.45,292.97,127.88z"/>
		</g>
		<g>
			<path class="st5" d="M330.63,143.18c0.35,3.26,0.21,6.55-0.08,9.83c-0.33,3.27-0.88,6.53-1.67,9.73
				c-1.53,6.43-4,12.65-7.22,18.45c-3.23,5.8-7.29,11.14-12.01,15.79c-4.74,4.62-10.11,8.56-15.95,11.48
				c4.95-4.27,9.57-8.73,13.72-13.56c2.01-2.47,4-4.94,5.79-7.56c0.47-0.64,0.89-1.31,1.33-1.97c0.44-0.66,0.89-1.31,1.28-1.99
				l1.25-2.02l1.17-2.06c3.09-5.53,5.65-11.36,7.71-17.4c1.01-3.02,1.96-6.09,2.71-9.21C329.48,149.56,330.12,146.4,330.63,143.18z"
				/>
		</g>
		<g>
			<path class="st6" d="M191.31,68.47c-5.81,7.65-11.19,15.11-16.06,22.81c-4.84,7.68-9.19,15.51-12.56,23.68
				c-0.42,1.02-0.88,2.03-1.24,3.07c-0.39,1.03-0.8,2.05-1.16,3.09l-1.06,3.12c-0.37,1.04-0.62,2.11-0.96,3.16
				c-1.22,4.23-2.24,8.52-2.91,12.92c-0.43,2.19-0.56,4.42-0.87,6.66c-0.08,1.12-0.14,2.24-0.24,3.37c-0.04,0.56-0.12,1.13-0.13,1.7
				l-0.03,1.71c-0.27,4.59,0.04,9.21,0.1,14.07c-0.59-1.05-1.14-2.12-1.68-3.2l-0.8-1.64c-0.27-0.55-0.45-1.12-0.68-1.68
				c-0.45-1.12-0.85-2.27-1.27-3.42c-0.39-1.16-0.66-2.34-1.01-3.52c-0.69-2.36-1.02-4.79-1.45-7.23c-0.15-1.22-0.24-2.45-0.35-3.68
				c-0.05-0.61-0.12-1.24-0.14-1.86c-0.02-0.62-0.02-1.24-0.02-1.85c-0.15-4.96,0.42-9.95,1.4-14.82c0.26-1.22,0.5-2.44,0.83-3.64
				l1.02-3.59c0.79-2.35,1.58-4.71,2.57-6.98c3.83-9.15,9.3-17.47,15.85-24.66c3.28-3.59,6.82-6.92,10.61-9.91
				c1.92-1.48,3.85-2.9,5.9-4.2C187,70.66,189.09,69.45,191.31,68.47z"/>
		</g>
		<g>
			<path class="st6" d="M206.59,132.01c-0.14-2.96,0.06-5.93,0.41-8.88c0.34-2.96,0.94-5.9,1.68-8.81
				c1.58-5.79,3.95-11.53,7.72-16.56c1.87-2.5,4.07-4.82,6.61-6.78c2.53-1.97,5.42-3.5,8.45-4.61l1.14-0.4
				c0.38-0.14,0.76-0.27,1.15-0.35l2.35-0.57c0.78-0.16,1.58-0.25,2.37-0.38l1.19-0.17l1.19-0.07c0.79-0.05,1.59-0.1,2.38-0.12
				l2.36,0.07l1.19,0.04l1.2,0.12c0.8,0.06,1.59,0.19,2.39,0.33c3.16,0.57,6.25,1.56,9.16,2.96c2.89,1.42,5.59,3.25,7.95,5.45
				c2.36,2.2,4.41,4.75,5.96,7.57c1.56,2.81,2.74,5.85,3.25,9.09c0.52,3.23,0.31,6.61-0.66,9.71c-0.97,3.1-2.6,5.88-4.56,8.28
				c-4.08,4.68-9.13,8.06-14.49,10.55c4.62-3.65,8.98-7.65,12.01-12.36c1.49-2.35,2.58-4.89,3.07-7.48c0.5-2.59,0.42-5.22-0.19-7.75
				c-0.59-2.53-1.75-4.99-3.16-7.22c-1.44-2.23-3.18-4.25-5.19-5.97c-3.99-3.47-9-5.77-14.24-6.67c-0.66-0.12-1.31-0.24-1.97-0.29
				l-0.99-0.11l-1.02-0.04l-2.04-0.08c-0.67,0.01-1.35,0.06-2.02,0.07l-1.01,0.03l-0.99,0.13c-0.66,0.09-1.33,0.14-1.98,0.26
				l-1.95,0.42c-0.65,0.12-1.27,0.37-1.91,0.55c-2.52,0.81-4.92,1.96-7.14,3.46c-2.19,1.52-4.22,3.35-6.03,5.42
				c-3.63,4.13-6.48,9.13-8.63,14.46c-1.13,2.65-2.06,5.4-2.89,8.19C207.85,126.26,207.14,129.11,206.59,132.01z"/>
		</g>
		<g>
			<path class="st6" d="M277.97,56.6c1.88,1.13,3.65,2.45,5.42,3.77c1.74,1.35,3.42,2.78,5.09,4.24c3.3,2.95,6.36,6.17,9.26,9.56
				c5.77,6.8,10.56,14.56,14,22.98c3.42,8.43,5.31,17.6,5.38,26.83c-0.04,2.3-0.05,4.62-0.32,6.91l-0.16,1.73
				c-0.05,0.58-0.11,1.15-0.22,1.71l-0.56,3.41c-0.15,1.14-0.47,2.25-0.73,3.37c-0.28,1.11-0.53,2.24-0.83,3.36l-1.03,3.29
				c-0.34,1.1-0.67,2.19-1.11,3.24l-1.26,3.17c-0.23,0.54-0.39,1.02-0.67,1.64c-0.25,0.56-0.51,1.09-0.77,1.62
				c-1.05,2.1-2.17,4.1-3.39,6.06c-2.46,3.89-5.22,7.6-8.39,10.98c-3.17,3.38-6.69,6.5-10.63,9.06c-3.92,2.58-8.25,4.63-12.8,5.9
				c-4.55,1.29-9.29,1.78-13.94,1.54c-4.66-0.18-9.16-1.33-13.44-2.78c-8.52-3.14-16.12-7.93-22.68-13.75
				c7.66,4.25,15.61,7.88,23.86,9.69c1.01,0.28,2.06,0.42,3.09,0.58c1.04,0.14,2.05,0.39,3.09,0.41l3.08,0.23l3.07-0.04
				c4.08-0.19,8.06-0.95,11.83-2.33c3.77-1.36,7.3-3.32,10.55-5.7c3.23-2.4,6.21-5.19,8.89-8.29c1.34-1.53,2.6-3.16,3.83-4.81
				c1.19-1.68,2.34-3.38,3.39-5.16c1.06-1.76,2.07-3.57,2.95-5.38c0.23-0.45,0.43-0.91,0.62-1.34c0.18-0.37,0.37-0.93,0.56-1.4
				l1.14-2.91c0.42-0.96,0.72-1.95,1.03-2.93l0.95-2.95c0.28-1,0.51-2,0.76-3c0.24-1,0.53-2,0.69-3.01l0.57-3.03
				c0.11-0.5,0.17-1.02,0.23-1.52l0.18-1.53c0.3-2.04,0.34-4.09,0.47-6.15c0.06-1.02,0-2.05,0-3.08l-0.01-1.54
				c0-0.52-0.07-1.03-0.1-1.54l-0.23-3.09l-0.4-3.08c-0.1-1.03-0.35-2.04-0.53-3.06c-0.19-1.01-0.37-2.04-0.64-3.05
				c-0.25-1.01-0.48-2.02-0.76-3.03l-0.91-3c-2.58-7.96-6.36-15.62-11.04-22.78C289.71,69.48,284.21,62.75,277.97,56.6z"/>
		</g>
		<g>
			<path class="st6" d="M340.68,93.45c3.41,5.1,5.71,10.88,7.5,16.78c1.71,5.93,2.84,12.06,3.18,18.27
				c0.42,6.21,0.06,12.45-0.8,18.61c-0.93,6.16-2.53,12.2-4.54,18.08c-2,5.89-4.7,11.51-7.66,16.95l-2.34,4.01
				c-0.38,0.67-0.8,1.32-1.22,1.97l-1.27,1.94l-1.27,1.94c-0.42,0.65-0.84,1.29-1.32,1.91l-2.77,3.7
				c-7.46,9.82-16.18,18.57-25.75,26.15c8.24-9,16.05-18.3,22.78-28.29c6.73-9.97,12.45-20.57,16.39-31.83
				c4.02-11.21,6.17-23.08,6.11-35.02c-0.01-1.49-0.08-2.98-0.12-4.48c-0.12-1.49-0.2-2.98-0.34-4.47
				c-0.18-1.48-0.29-2.99-0.55-4.46l-0.34-2.22l-0.42-2.21C344.82,104.87,343.17,99.02,340.68,93.45z"/>
		</g>
	</g>
</g>
</svg>
