<?xml version="1.0" encoding="utf-8"?>
<!-- Generator: Adobe Illustrator 23.0.6, SVG Export Plug-In . SVG Version: 6.00 Build 0)  -->
<svg version="1.1" xmlns="http://www.w3.org/2000/svg" xmlns:xlink="http://www.w3.org/1999/xlink" x="0px" y="0px"
	 viewBox="0 0 500 500" style="enable-background:new 0 0 500 500;" xml:space="preserve">
<style type="text/css">
	.st0{fill:#28DBC3;}
	.st1{fill:#20917E;}
	.st2{fill:#FAF9F3;}
	.st3{fill:#FCFBF5;}
	.st4{fill:#FCFBF5;stroke:#000000;stroke-width:0.25;stroke-miterlimit:10;}
	.st5{stroke:#000000;stroke-width:0.25;stroke-miterlimit:10;}
	.st6{fill:#161A24;}
	.st7{fill:#21385B;}
	.st8{fill:#070707;}
	.st9{fill:#8B8D90;}
	.st10{fill:#DBCDC0;}
</style>
<g id="sombras">
</g>
<g id="trazos">
	<path d="M165.82,461.84c0,0-9.3,0.68-13.73,2.11h191.02c0,0-3.39-2.07-7.27-2.77"/>
	<path class="st0" d="M138,423.39c0,0,0.39,38.48,38.48,40.04h148.96c0,0,37.04-1.57,36.26-43.57l0.01-222c0,0,1.81-0.38,1.81-2.18
		v-31.7c0,0,0.05-1.61-1.47-2.01l-0.1-6.55c0,0,1.52,0.16,1.57-1.65v-32.46c0,0-0.73-1.11-1.32-1.26l-0.1-62.22
		c0,0,1.16-42.33-43.71-42.59h-60.52h-82.96c0,0-37.04,2.61-36.78,42.52l0,73.7c0,0-1.82,0.07-1.69,1.83l-0.01,50.64
		c0,0-0.09,2.09,1.44,2.09L138,423.39z"/>
	<g id="apple">
		<path class="st1" d="M251.41,220.37c0,0-17.28-9.33-22.63,8.35c0,0-2.87,13.86,7.11,27c0,0,4.21,7.96,16.92,1.79
			c0,0,10.47,5.38,14.97-2.15l6.03-10.21c0,0-6.95-2.48-7.99-11.22c0,0,2.02-9.72,6.26-10.63
			C272.09,223.3,265.57,213.52,251.41,220.37z"/>
		<path class="st1" d="M262.08,204.2c0,0-11.12,1.14-11.38,12.65C250.7,216.85,261.16,216.82,262.08,204.2z"/>
	</g>
	<g>
		<path class="st1" d="M147.65,101.67v-49.4c0-14.75,11.96-26.71,26.71-26.71h47.74c15.4,0,27.88,12.48,27.88,27.88v52.04
			c0,16.8-13.62,30.42-30.42,30.42h-37.66C162.98,135.91,147.65,120.58,147.65,101.67z"/>
		<path class="st2" d="M154.13,98.37V54.92c0-12.97,10.57-23.49,23.6-23.49h42.19c13.61,0,24.64,10.98,24.64,24.52v45.77
			c0,14.78-12.04,26.76-26.89,26.76h-33.29C167.68,128.48,154.13,115,154.13,98.37z"/>
		<path class="st3" d="M158.09,97.03V57.17c0-11.9,9.65-21.55,21.55-21.55h38.52c12.42,0,22.5,10.07,22.5,22.5v41.99
			c0,13.56-10.99,24.55-24.55,24.55h-30.39C170.46,124.66,158.09,112.29,158.09,97.03z"/>
		<g>
			<circle class="st4" cx="181.37" cy="58.37" r="18.37"/>
			<circle class="st5" cx="181.37" cy="58.37" r="14.61"/>
			<circle class="st6" cx="181.37" cy="58.37" r="10.66"/>
			<circle class="st7" cx="181.37" cy="58.64" r="4.67"/>
		</g>
		<circle class="st4" cx="181.37" cy="100.95" r="18.37"/>
		<circle class="st8" cx="181.37" cy="100.95" r="14.61"/>
		<circle class="st6" cx="181.37" cy="100.95" r="10.66"/>
		<circle class="st7" cx="181.37" cy="101.22" r="4.67"/>
		<circle class="st9" cx="219.2" cy="57" r="2.8"/>
		<circle class="st10" cx="219.2" cy="79.63" r="7.7"/>
	</g>
</g>
</svg>
